<svg width="22" height="22" viewBox="0 0 22 22" fill="none" xmlns="http://www.w3.org/2000/svg">
<path d="M0 11C0 3 3 0 11 0C19 0 22 3 22 11C22 19 19 22 11 22C3 22 0 19 0 11Z" fill="#4EB7F2"/>
<path d="M17 7.33225V14.8663C17 15.356 16.6035 15.7525 16.1138 15.7525H14.0452V10.7301L10.5 13.3897L6.95479 10.7301V15.753H4.88617C4.76975 15.753 4.65447 15.7301 4.54692 15.6855C4.43937 15.6409 4.34166 15.5756 4.25936 15.4933C4.17707 15.4109 4.1118 15.3132 4.0673 15.2056C4.0228 15.098 3.99993 14.9827 4 14.8663V7.33225C4 6.23645 5.25071 5.61083 6.12713 6.26841L10.5 9.5482L14.8729 6.26841C15.7488 5.61137 17 6.23645 17 7.33225Z" fill="white"/>
</svg>
