<svg width="22" height="22" viewBox="0 0 22 22" fill="none" xmlns="http://www.w3.org/2000/svg">
<path d="M0 11C0 3 3 0 11 0C19 0 22 3 22 11C22 19 19 22 11 22C3 22 0 19 0 11Z" fill="#4EB7F2"/>
<path d="M11.9392 2.95074C12.7559 2.93823 13.5666 2.94474 14.3768 2.93823C14.4037 3.95421 14.8148 4.86863 15.4688 5.54595L15.4678 5.54495C16.1718 6.18075 17.0877 6.59294 18.0975 6.66297L18.1115 6.66397V9.18315C17.1576 9.15914 16.2606 8.93853 15.4519 8.55936L15.4928 8.57636C15.1016 8.38778 14.7709 8.19419 14.4566 7.97808L14.4825 7.99509C14.4765 9.82044 14.4885 11.6458 14.47 13.4646C14.4187 14.3916 14.1113 15.237 13.6184 15.9428L13.6284 15.9273C12.8042 17.1108 11.4692 17.8877 9.95109 17.9337H9.9441C9.88274 17.9367 9.8104 17.9382 9.73756 17.9382C8.87448 17.9382 8.06778 17.6971 7.3803 17.2784L7.40026 17.2899C6.14904 16.5351 5.28596 15.2435 5.12631 13.7413L5.12432 13.7208C5.11185 13.4081 5.10586 13.0955 5.11833 12.7893C5.36279 10.3987 7.36035 8.54935 9.78845 8.54935C10.0613 8.54935 10.3287 8.57286 10.5887 8.61738L10.5607 8.61338C10.5732 9.53831 10.5358 10.4637 10.5358 11.3887C10.3248 11.3121 10.0813 11.2676 9.82736 11.2676C8.89544 11.2676 8.1027 11.8649 7.80935 12.6988L7.80486 12.7138C7.73851 12.9274 7.70009 13.173 7.70009 13.4271C7.70009 13.5302 7.70658 13.6322 7.71855 13.7323L7.71755 13.7203C7.88319 14.7437 8.75824 15.5161 9.8134 15.5161C9.84383 15.5161 9.87376 15.5156 9.90369 15.5141H9.8992C10.6291 15.4921 11.2627 15.0984 11.6209 14.5166L11.6259 14.5076C11.7591 14.3215 11.8504 14.0964 11.8808 13.8518L11.8813 13.8448C11.9437 12.7258 11.9187 11.6133 11.9247 10.4943C11.9307 7.97508 11.9187 5.46191 11.9372 2.94924L11.9392 2.95074Z" fill="white"/>
</svg>
