<svg width="22" height="22" viewBox="0 0 22 22" fill="none" xmlns="http://www.w3.org/2000/svg">
<path d="M0 11C0 3 3 0 11 0C19 0 22 3 22 11C22 19 19 22 11 22C3 22 0 19 0 11Z" fill="#4EB7F2"/>
<mask id="path-2-inside-1_226_23" fill="white">
<path d="M11.5486 8.27429L8.27429 17H6.09143L7.18286 14.0914L5 8.27429H7.18286L8.27429 11.1771L9.36571 8.27429H11.5486Z"/>
<path d="M17 5L14.9543 10.4514H12.7714L14.8171 5H17Z"/>
<path d="M13.1829 13.7257C13.7856 13.7257 14.2743 13.2371 14.2743 12.6343C14.2743 12.0315 13.7856 11.5429 13.1829 11.5429C12.5801 11.5429 12.0914 12.0315 12.0914 12.6343C12.0914 13.2371 12.5801 13.7257 13.1829 13.7257Z"/>
</mask>
<path d="M11.5486 8.27429L19.9749 11.4362L24.5386 -0.725715H11.5486V8.27429ZM8.27429 17V26H14.5099L16.7006 20.1619L8.27429 17ZM6.09143 17L-2.33485 13.8381L-6.89856 26H6.09143V17ZM7.18286 14.0914L15.6091 17.2534L16.7956 14.0914L15.6091 10.9295L7.18286 14.0914ZM5 8.27429V-0.725715H-7.98999L-3.42628 11.4362L5 8.27429ZM7.18286 8.27429L15.6071 5.10691L13.4141 -0.725715H7.18286V8.27429ZM8.27429 11.1771L-0.149948 14.3445L8.27429 36.7503L16.6985 14.3445L8.27429 11.1771ZM9.36571 8.27429V-0.725715H3.13446L0.941481 5.10691L9.36571 8.27429ZM17 5L25.4262 8.16205L29.9902 -4L17 -4V5ZM14.9543 10.4514V19.4514H21.1898L23.3805 13.6135L14.9543 10.4514ZM12.7714 10.4514L4.34519 7.28938L-0.218762 19.4514H12.7714V10.4514ZM14.8171 5V-4H8.58167L6.39091 1.83795L14.8171 5ZM8.27429 8H6.09143V26H8.27429V8ZM14.5177 20.1619L15.6091 17.2534L-1.24342 10.9295L-2.33485 13.8381L14.5177 20.1619ZM15.6091 10.9295L13.4263 5.11236L-3.42628 11.4362L-1.24342 17.2534L15.6091 10.9295ZM5 17.2743H7.18286V-0.725715H5V17.2743ZM-1.24138 11.4417L-0.149948 14.3445L16.6985 8.00976L15.6071 5.10691L-1.24138 11.4417ZM16.6985 14.3445L17.7899 11.4417L0.941481 5.10691L-0.149947 8.00976L16.6985 14.3445ZM9.36571 17.2743H11.5486V-0.725715H9.36571V17.2743ZM8.57376 1.83795L6.52805 7.28938L23.3805 13.6135L25.4262 8.16205L8.57376 1.83795ZM14.9543 1.45143H12.7714V19.4514H14.9543V1.45143ZM21.1977 13.6135L23.2434 8.16205L6.39091 1.83795L4.34519 7.28938L21.1977 13.6135ZM14.8171 14H17V-4H14.8171V14ZM5.27429 12.6343C5.27429 8.26651 8.81507 4.72571 13.1829 4.72571V22.7257C18.7562 22.7257 23.2743 18.2076 23.2743 12.6343H5.27429ZM13.1829 4.72571C17.5506 4.72571 21.0914 8.2665 21.0914 12.6343H3.09143C3.09143 18.2076 7.60952 22.7257 13.1829 22.7257V4.72571ZM21.0914 12.6343C21.0914 17.0021 17.5506 20.5429 13.1829 20.5429V2.54286C7.60952 2.54286 3.09143 7.06094 3.09143 12.6343H21.0914ZM13.1829 20.5429C8.81507 20.5429 5.27429 17.0021 5.27429 12.6343H23.2743C23.2743 7.06095 18.7562 2.54286 13.1829 2.54286V20.5429ZM3.12229 5.11236L-0.151996 13.8381L16.7006 20.1619L19.9749 11.4362L3.12229 5.11236Z" fill="white" mask="url(#path-2-inside-1_226_23)"/>
</svg>
