<svg width="24" height="24" viewBox="0 0 24 24" fill="none" xmlns="http://www.w3.org/2000/svg">
<path d="M1 12C1 4 4 1 12 1C20 1 23 4 23 12C23 20 20 23 12 23C4 23 1 20 1 12Z" fill="#4EB7F2"/>
<mask id="path-2-inside-1_207_34" fill="white">
<path d="M12.5486 9.27429L9.27429 18H7.09143L8.18286 15.0914L6 9.27429H8.18286L9.27429 12.1771L10.3657 9.27429H12.5486Z"/>
<path d="M18 6L15.9543 11.4514H13.7714L15.8171 6H18Z"/>
<path d="M14.1829 14.7257C14.7856 14.7257 15.2743 14.2371 15.2743 13.6343C15.2743 13.0315 14.7856 12.5429 14.1829 12.5429C13.5801 12.5429 13.0914 13.0315 13.0914 13.6343C13.0914 14.2371 13.5801 14.7257 14.1829 14.7257Z"/>
</mask>
<path d="M12.5486 9.27429L20.9749 12.4362L25.5386 0.274285H12.5486V9.27429ZM9.27429 18V27H15.5099L17.7006 21.1619L9.27429 18ZM7.09143 18L-1.33485 14.8381L-5.89856 27H7.09143V18ZM8.18286 15.0914L16.6091 18.2534L17.7956 15.0914L16.6091 11.9295L8.18286 15.0914ZM6 9.27429V0.274285H-6.98999L-2.42628 12.4362L6 9.27429ZM8.18286 9.27429L16.6071 6.10691L14.4141 0.274285H8.18286V9.27429ZM9.27429 12.1771L0.850052 15.3445L9.27429 37.7503L17.6985 15.3445L9.27429 12.1771ZM10.3657 9.27429V0.274285H4.13446L1.94148 6.10691L10.3657 9.27429ZM18 6L26.4262 9.16205L30.9902 -3H18V6ZM15.9543 11.4514V20.4514H22.1898L24.3805 14.6135L15.9543 11.4514ZM13.7714 11.4514L5.34519 8.28938L0.781238 20.4514H13.7714V11.4514ZM15.8171 6V-3H9.58167L7.39091 2.83795L15.8171 6ZM9.27429 9H7.09143V27H9.27429V9ZM15.5177 21.1619L16.6091 18.2534L-0.243425 11.9295L-1.33485 14.8381L15.5177 21.1619ZM16.6091 11.9295L14.4263 6.11236L-2.42628 12.4362L-0.243424 18.2534L16.6091 11.9295ZM6 18.2743H8.18286V0.274285H6V18.2743ZM-0.241376 12.4417L0.850052 15.3445L17.6985 9.00976L16.6071 6.10691L-0.241376 12.4417ZM17.6985 15.3445L18.7899 12.4417L1.94148 6.10691L0.850052 9.00976L17.6985 15.3445ZM10.3657 18.2743H12.5486V0.274285H10.3657V18.2743ZM9.57376 2.83795L7.52805 8.28938L24.3805 14.6135L26.4262 9.16205L9.57376 2.83795ZM15.9543 2.45143H13.7714V20.4514H15.9543V2.45143ZM22.1977 14.6135L24.2434 9.16205L7.39091 2.83795L5.34519 8.28938L22.1977 14.6135ZM15.8171 15H18V-3H15.8171V15ZM6.27429 13.6343C6.27429 9.26651 9.81507 5.72571 14.1829 5.72571V23.7257C19.7562 23.7257 24.2743 19.2076 24.2743 13.6343H6.27429ZM14.1829 5.72571C18.5506 5.72571 22.0914 9.2665 22.0914 13.6343H4.09143C4.09143 19.2076 8.60952 23.7257 14.1829 23.7257V5.72571ZM22.0914 13.6343C22.0914 18.0021 18.5506 21.5429 14.1829 21.5429V3.54286C8.60952 3.54286 4.09143 8.06094 4.09143 13.6343H22.0914ZM14.1829 21.5429C9.81507 21.5429 6.27429 18.0021 6.27429 13.6343H24.2743C24.2743 8.06095 19.7562 3.54286 14.1829 3.54286V21.5429ZM4.12229 6.11236L0.848004 14.8381L17.7006 21.1619L20.9749 12.4362L4.12229 6.11236Z" fill="white" mask="url(#path-2-inside-1_207_34)"/>
</svg>
