<svg width="22" height="22" viewBox="0 0 22 22" fill="none" xmlns="http://www.w3.org/2000/svg">
<path d="M0 11C0 3 3 0 11 0C19 0 22 3 22 11C22 19 19 22 11 22C3 22 0 19 0 11Z" fill="#4EB7F2"/>
<path d="M9.5332 16.9922H7.23242L8.16016 14.8027L5.59961 8.67969H7.9375L9.31055 12.2051L10.6836 8.67969H12.9844M15.1367 11.5H12.5762L14.877 6.00781H17.4375" fill="white"/>
<path d="M13.2441 14.8398C14.0229 14.8398 14.6543 14.2085 14.6543 13.4297C14.6543 12.6509 14.0229 12.0195 13.2441 12.0195C12.4653 12.0195 11.834 12.6509 11.834 13.4297C11.834 14.2085 12.4653 14.8398 13.2441 14.8398Z" fill="white"/>
</svg>
