<svg width="25" height="25" viewBox="0 0 25 25" fill="none" xmlns="http://www.w3.org/2000/svg">
<g clip-path="url(#clip0_3_931)">
<path d="M1.26489 12.0618C1.26489 4.06177 4.26489 1.06177 12.2649 1.06177C20.2649 1.06177 23.2649 4.06177 23.2649 12.0618C23.2649 20.0618 20.2649 23.0618 12.2649 23.0618C4.26489 23.0618 1.26489 20.0618 1.26489 12.0618Z" fill="#4EB7F2"/>
<path d="M19.3249 9.06174C19.2535 8.52583 19.0546 8.01487 18.7449 7.57174C18.5561 7.36819 18.3271 7.20616 18.0723 7.09598C17.8174 6.98579 17.5425 6.92986 17.2649 6.93174C15.2649 6.78174 12.2649 6.78174 12.2649 6.78174C12.2649 6.78174 9.2649 6.78174 7.2649 6.93174C6.99404 6.93534 6.72674 6.99392 6.47921 7.10394C6.23167 7.21395 6.00907 7.3731 5.8249 7.57174C5.50095 8.01106 5.28822 8.5223 5.2049 9.06174C5.1175 9.86888 5.07077 10.6799 5.0649 11.4917V12.6317C5.0649 13.8417 5.2049 15.0617 5.2049 15.0617C5.27778 15.5973 5.47655 16.1079 5.7849 16.5517C6.21181 16.957 6.77629 17.1856 7.3649 17.1917C8.5249 17.3017 12.2649 17.3417 12.2649 17.3417C12.2649 17.3417 15.2649 17.3417 17.2649 17.1817C17.535 17.1794 17.8019 17.1224 18.0494 17.0141C18.2969 16.9059 18.5199 16.7486 18.7049 16.5517C19.0275 16.1116 19.2401 15.6008 19.3249 15.0617C19.3249 15.0617 19.4649 13.8417 19.4649 12.6317V11.4917C19.459 10.6799 19.4123 9.86888 19.3249 9.06174ZM10.6849 14.1717V9.95174L14.5749 12.0617L10.6849 14.1717Z" fill="white"/>
</g>
<defs>
<clipPath id="clip0_3_931">
<rect width="24" height="24" fill="white" transform="translate(0.264893 0.0617676)"/>
</clipPath>
</defs>
</svg>
